<mxfile host="app.diagrams.net" agent="Mozilla/5.0 (Windows NT 10.0; Win64; x64) AppleWebKit/537.36 (KHTML, like Gecko) Chrome/132.0.0.0 Safari/537.36" version="26.0.13">
  <diagram id="C5RBs43oDa-KdzZeNtuy" name="Page-1">
    <mxGraphModel dx="2261" dy="772" grid="1" gridSize="10" guides="1" tooltips="1" connect="1" arrows="1" fold="1" page="1" pageScale="1" pageWidth="827" pageHeight="1169" math="0" shadow="0">
      <root>
        <mxCell id="WIyWlLk6GJQsqaUBKTNV-0" />
        <mxCell id="WIyWlLk6GJQsqaUBKTNV-1" parent="WIyWlLk6GJQsqaUBKTNV-0" />
        <mxCell id="1CElr1rfIcKDRtoAOfld-0" value="Trainer" style="swimlane;fontStyle=0;childLayout=stackLayout;horizontal=1;startSize=26;fillColor=none;horizontalStack=0;resizeParent=1;resizeParentMax=0;resizeLast=0;collapsible=1;marginBottom=0;whiteSpace=wrap;html=1;" vertex="1" parent="WIyWlLk6GJQsqaUBKTNV-1">
          <mxGeometry x="220" y="90" width="150" height="168" as="geometry" />
        </mxCell>
        <mxCell id="1CElr1rfIcKDRtoAOfld-1" value="+ name: string&lt;div&gt;+ belt: List&lt;/div&gt;" style="text;strokeColor=none;fillColor=none;align=left;verticalAlign=top;spacingLeft=4;spacingRight=4;overflow=hidden;rotatable=0;points=[[0,0.5],[1,0.5]];portConstraint=eastwest;whiteSpace=wrap;html=1;" vertex="1" parent="1CElr1rfIcKDRtoAOfld-0">
          <mxGeometry y="26" width="150" height="34" as="geometry" />
        </mxCell>
        <mxCell id="1CElr1rfIcKDRtoAOfld-2" value="" style="line;strokeWidth=1;fillColor=none;align=left;verticalAlign=middle;spacingTop=-1;spacingLeft=3;spacingRight=3;rotatable=0;labelPosition=right;points=[];portConstraint=eastwest;strokeColor=inherit;" vertex="1" parent="1CElr1rfIcKDRtoAOfld-0">
          <mxGeometry y="60" width="150" height="8" as="geometry" />
        </mxCell>
        <mxCell id="1CElr1rfIcKDRtoAOfld-3" value="&lt;div&gt;&lt;br&gt;&lt;/div&gt;&lt;div&gt;+ Throwpokeball(): void&lt;/div&gt;&lt;div&gt;+ ReturnPokeball(): void&lt;/div&gt;&lt;div&gt;+ Throw(): void&lt;/div&gt;&lt;div&gt;+ Return(): void&lt;/div&gt;" style="text;strokeColor=none;fillColor=none;align=left;verticalAlign=top;spacingLeft=4;spacingRight=4;overflow=hidden;rotatable=0;points=[[0,0.5],[1,0.5]];portConstraint=eastwest;whiteSpace=wrap;html=1;" vertex="1" parent="1CElr1rfIcKDRtoAOfld-0">
          <mxGeometry y="68" width="150" height="100" as="geometry" />
        </mxCell>
        <mxCell id="1CElr1rfIcKDRtoAOfld-5" value="Pokeball" style="swimlane;fontStyle=0;childLayout=stackLayout;horizontal=1;startSize=26;fillColor=none;horizontalStack=0;resizeParent=1;resizeParentMax=0;resizeLast=0;collapsible=1;marginBottom=0;whiteSpace=wrap;html=1;" vertex="1" parent="WIyWlLk6GJQsqaUBKTNV-1">
          <mxGeometry x="500" y="190" width="180" height="168" as="geometry" />
        </mxCell>
        <mxCell id="1CElr1rfIcKDRtoAOfld-6" value="+ pokemon: Pokemon&lt;div&gt;+ isOpen: Bool&lt;/div&gt;" style="text;strokeColor=none;fillColor=none;align=left;verticalAlign=top;spacingLeft=4;spacingRight=4;overflow=hidden;rotatable=0;points=[[0,0.5],[1,0.5]];portConstraint=eastwest;whiteSpace=wrap;html=1;" vertex="1" parent="1CElr1rfIcKDRtoAOfld-5">
          <mxGeometry y="26" width="180" height="34" as="geometry" />
        </mxCell>
        <mxCell id="1CElr1rfIcKDRtoAOfld-7" value="" style="line;strokeWidth=1;fillColor=none;align=left;verticalAlign=middle;spacingTop=-1;spacingLeft=3;spacingRight=3;rotatable=0;labelPosition=right;points=[];portConstraint=eastwest;strokeColor=inherit;" vertex="1" parent="1CElr1rfIcKDRtoAOfld-5">
          <mxGeometry y="60" width="180" height="8" as="geometry" />
        </mxCell>
        <mxCell id="1CElr1rfIcKDRtoAOfld-8" value="&lt;div&gt;&lt;br&gt;&lt;/div&gt;&lt;div&gt;&lt;span style=&quot;background-color: transparent; color: light-dark(rgb(0, 0, 0), rgb(255, 255, 255));&quot;&gt;+ Throw(): void&lt;/span&gt;&lt;/div&gt;&lt;div&gt;+ Return(): void&lt;/div&gt;" style="text;strokeColor=none;fillColor=none;align=left;verticalAlign=top;spacingLeft=4;spacingRight=4;overflow=hidden;rotatable=0;points=[[0,0.5],[1,0.5]];portConstraint=eastwest;whiteSpace=wrap;html=1;" vertex="1" parent="1CElr1rfIcKDRtoAOfld-5">
          <mxGeometry y="68" width="180" height="100" as="geometry" />
        </mxCell>
        <mxCell id="1CElr1rfIcKDRtoAOfld-10" value="Pokemon" style="swimlane;fontStyle=0;childLayout=stackLayout;horizontal=1;startSize=26;fillColor=none;horizontalStack=0;resizeParent=1;resizeParentMax=0;resizeLast=0;collapsible=1;marginBottom=0;whiteSpace=wrap;html=1;" vertex="1" parent="WIyWlLk6GJQsqaUBKTNV-1">
          <mxGeometry x="350" y="400" width="180" height="208" as="geometry" />
        </mxCell>
        <mxCell id="1CElr1rfIcKDRtoAOfld-11" value="+ name: String&lt;div&gt;&lt;span style=&quot;background-color: transparent; color: light-dark(rgb(0, 0, 0), rgb(255, 255, 255));&quot;&gt;+ battlecry: String&lt;/span&gt;&lt;/div&gt;&lt;div&gt;&lt;span style=&quot;background-color: transparent; color: light-dark(rgb(0, 0, 0), rgb(255, 255, 255));&quot;&gt;+ type: String&lt;/span&gt;&lt;/div&gt;&lt;div&gt;&lt;span style=&quot;background-color: transparent; color: light-dark(rgb(0, 0, 0), rgb(255, 255, 255));&quot;&gt;+ weakness: String&lt;/span&gt;&lt;/div&gt;" style="text;strokeColor=none;fillColor=none;align=left;verticalAlign=top;spacingLeft=4;spacingRight=4;overflow=hidden;rotatable=0;points=[[0,0.5],[1,0.5]];portConstraint=eastwest;whiteSpace=wrap;html=1;" vertex="1" parent="1CElr1rfIcKDRtoAOfld-10">
          <mxGeometry y="26" width="180" height="74" as="geometry" />
        </mxCell>
        <mxCell id="1CElr1rfIcKDRtoAOfld-12" value="" style="line;strokeWidth=1;fillColor=none;align=left;verticalAlign=middle;spacingTop=-1;spacingLeft=3;spacingRight=3;rotatable=0;labelPosition=right;points=[];portConstraint=eastwest;strokeColor=inherit;" vertex="1" parent="1CElr1rfIcKDRtoAOfld-10">
          <mxGeometry y="100" width="180" height="8" as="geometry" />
        </mxCell>
        <mxCell id="1CElr1rfIcKDRtoAOfld-13" value="&lt;div&gt;&lt;br&gt;&lt;/div&gt;&lt;div&gt;&lt;span style=&quot;background-color: transparent; color: light-dark(rgb(0, 0, 0), rgb(255, 255, 255));&quot;&gt;- battleCry(): void&lt;/span&gt;&lt;/div&gt;&lt;div&gt;+ SetName(): void&lt;/div&gt;" style="text;strokeColor=none;fillColor=none;align=left;verticalAlign=top;spacingLeft=4;spacingRight=4;overflow=hidden;rotatable=0;points=[[0,0.5],[1,0.5]];portConstraint=eastwest;whiteSpace=wrap;html=1;" vertex="1" parent="1CElr1rfIcKDRtoAOfld-10">
          <mxGeometry y="108" width="180" height="100" as="geometry" />
        </mxCell>
        <mxCell id="1CElr1rfIcKDRtoAOfld-15" value="Charmander" style="swimlane;fontStyle=0;childLayout=stackLayout;horizontal=1;startSize=26;fillColor=none;horizontalStack=0;resizeParent=1;resizeParentMax=0;resizeLast=0;collapsible=1;marginBottom=0;whiteSpace=wrap;html=1;" vertex="1" parent="WIyWlLk6GJQsqaUBKTNV-1">
          <mxGeometry x="170" y="730" width="140" height="208" as="geometry" />
        </mxCell>
        <mxCell id="1CElr1rfIcKDRtoAOfld-16" value="+ name: String&lt;div&gt;&lt;span style=&quot;background-color: transparent; color: light-dark(rgb(0, 0, 0), rgb(255, 255, 255));&quot;&gt;+ battlecry: String&lt;/span&gt;&lt;/div&gt;&lt;div&gt;&lt;span style=&quot;background-color: transparent; color: light-dark(rgb(0, 0, 0), rgb(255, 255, 255));&quot;&gt;+ type: String&lt;/span&gt;&lt;/div&gt;&lt;div&gt;&lt;span style=&quot;background-color: transparent; color: light-dark(rgb(0, 0, 0), rgb(255, 255, 255));&quot;&gt;+ weakness: String&lt;/span&gt;&lt;/div&gt;" style="text;strokeColor=none;fillColor=none;align=left;verticalAlign=top;spacingLeft=4;spacingRight=4;overflow=hidden;rotatable=0;points=[[0,0.5],[1,0.5]];portConstraint=eastwest;whiteSpace=wrap;html=1;" vertex="1" parent="1CElr1rfIcKDRtoAOfld-15">
          <mxGeometry y="26" width="140" height="74" as="geometry" />
        </mxCell>
        <mxCell id="1CElr1rfIcKDRtoAOfld-17" value="" style="line;strokeWidth=1;fillColor=none;align=left;verticalAlign=middle;spacingTop=-1;spacingLeft=3;spacingRight=3;rotatable=0;labelPosition=right;points=[];portConstraint=eastwest;strokeColor=inherit;" vertex="1" parent="1CElr1rfIcKDRtoAOfld-15">
          <mxGeometry y="100" width="140" height="8" as="geometry" />
        </mxCell>
        <mxCell id="1CElr1rfIcKDRtoAOfld-18" value="&lt;div&gt;&lt;br&gt;&lt;/div&gt;&lt;div&gt;&lt;span style=&quot;background-color: transparent; color: light-dark(rgb(0, 0, 0), rgb(255, 255, 255));&quot;&gt;- battleCry(): void&lt;/span&gt;&lt;/div&gt;&lt;div&gt;+ SetName(): void&lt;/div&gt;" style="text;strokeColor=none;fillColor=none;align=left;verticalAlign=top;spacingLeft=4;spacingRight=4;overflow=hidden;rotatable=0;points=[[0,0.5],[1,0.5]];portConstraint=eastwest;whiteSpace=wrap;html=1;" vertex="1" parent="1CElr1rfIcKDRtoAOfld-15">
          <mxGeometry y="108" width="140" height="100" as="geometry" />
        </mxCell>
        <mxCell id="1CElr1rfIcKDRtoAOfld-19" value="Bulbasaur" style="swimlane;fontStyle=0;childLayout=stackLayout;horizontal=1;startSize=26;fillColor=none;horizontalStack=0;resizeParent=1;resizeParentMax=0;resizeLast=0;collapsible=1;marginBottom=0;whiteSpace=wrap;html=1;" vertex="1" parent="WIyWlLk6GJQsqaUBKTNV-1">
          <mxGeometry x="370" y="730" width="140" height="208" as="geometry" />
        </mxCell>
        <mxCell id="1CElr1rfIcKDRtoAOfld-20" value="+ name: String&lt;div&gt;&lt;span style=&quot;background-color: transparent; color: light-dark(rgb(0, 0, 0), rgb(255, 255, 255));&quot;&gt;+ battlecry: String&lt;/span&gt;&lt;/div&gt;&lt;div&gt;&lt;span style=&quot;background-color: transparent; color: light-dark(rgb(0, 0, 0), rgb(255, 255, 255));&quot;&gt;+ type: String&lt;/span&gt;&lt;/div&gt;&lt;div&gt;&lt;span style=&quot;background-color: transparent; color: light-dark(rgb(0, 0, 0), rgb(255, 255, 255));&quot;&gt;+ weakness: String&lt;/span&gt;&lt;/div&gt;" style="text;strokeColor=none;fillColor=none;align=left;verticalAlign=top;spacingLeft=4;spacingRight=4;overflow=hidden;rotatable=0;points=[[0,0.5],[1,0.5]];portConstraint=eastwest;whiteSpace=wrap;html=1;" vertex="1" parent="1CElr1rfIcKDRtoAOfld-19">
          <mxGeometry y="26" width="140" height="74" as="geometry" />
        </mxCell>
        <mxCell id="1CElr1rfIcKDRtoAOfld-21" value="" style="line;strokeWidth=1;fillColor=none;align=left;verticalAlign=middle;spacingTop=-1;spacingLeft=3;spacingRight=3;rotatable=0;labelPosition=right;points=[];portConstraint=eastwest;strokeColor=inherit;" vertex="1" parent="1CElr1rfIcKDRtoAOfld-19">
          <mxGeometry y="100" width="140" height="8" as="geometry" />
        </mxCell>
        <mxCell id="1CElr1rfIcKDRtoAOfld-22" value="&lt;div&gt;&lt;br&gt;&lt;/div&gt;&lt;div&gt;&lt;span style=&quot;background-color: transparent; color: light-dark(rgb(0, 0, 0), rgb(255, 255, 255));&quot;&gt;- battleCry(): void&lt;/span&gt;&lt;/div&gt;&lt;div&gt;+ SetName(): void&lt;/div&gt;" style="text;strokeColor=none;fillColor=none;align=left;verticalAlign=top;spacingLeft=4;spacingRight=4;overflow=hidden;rotatable=0;points=[[0,0.5],[1,0.5]];portConstraint=eastwest;whiteSpace=wrap;html=1;" vertex="1" parent="1CElr1rfIcKDRtoAOfld-19">
          <mxGeometry y="108" width="140" height="100" as="geometry" />
        </mxCell>
        <mxCell id="1CElr1rfIcKDRtoAOfld-23" value="Squirtle" style="swimlane;fontStyle=0;childLayout=stackLayout;horizontal=1;startSize=26;fillColor=none;horizontalStack=0;resizeParent=1;resizeParentMax=0;resizeLast=0;collapsible=1;marginBottom=0;whiteSpace=wrap;html=1;" vertex="1" parent="WIyWlLk6GJQsqaUBKTNV-1">
          <mxGeometry x="570" y="730" width="140" height="208" as="geometry" />
        </mxCell>
        <mxCell id="1CElr1rfIcKDRtoAOfld-24" value="+ name: String&lt;div&gt;&lt;span style=&quot;background-color: transparent; color: light-dark(rgb(0, 0, 0), rgb(255, 255, 255));&quot;&gt;+ battlecry: String&lt;/span&gt;&lt;/div&gt;&lt;div&gt;&lt;span style=&quot;background-color: transparent; color: light-dark(rgb(0, 0, 0), rgb(255, 255, 255));&quot;&gt;+ type: String&lt;/span&gt;&lt;/div&gt;&lt;div&gt;&lt;span style=&quot;background-color: transparent; color: light-dark(rgb(0, 0, 0), rgb(255, 255, 255));&quot;&gt;+ weakness: String&lt;/span&gt;&lt;/div&gt;" style="text;strokeColor=none;fillColor=none;align=left;verticalAlign=top;spacingLeft=4;spacingRight=4;overflow=hidden;rotatable=0;points=[[0,0.5],[1,0.5]];portConstraint=eastwest;whiteSpace=wrap;html=1;" vertex="1" parent="1CElr1rfIcKDRtoAOfld-23">
          <mxGeometry y="26" width="140" height="74" as="geometry" />
        </mxCell>
        <mxCell id="1CElr1rfIcKDRtoAOfld-25" value="" style="line;strokeWidth=1;fillColor=none;align=left;verticalAlign=middle;spacingTop=-1;spacingLeft=3;spacingRight=3;rotatable=0;labelPosition=right;points=[];portConstraint=eastwest;strokeColor=inherit;" vertex="1" parent="1CElr1rfIcKDRtoAOfld-23">
          <mxGeometry y="100" width="140" height="8" as="geometry" />
        </mxCell>
        <mxCell id="1CElr1rfIcKDRtoAOfld-26" value="&lt;div&gt;&lt;br&gt;&lt;/div&gt;&lt;div&gt;&lt;span style=&quot;background-color: transparent; color: light-dark(rgb(0, 0, 0), rgb(255, 255, 255));&quot;&gt;- battleCry(): void&lt;/span&gt;&lt;/div&gt;&lt;div&gt;+ SetName(): void&lt;/div&gt;" style="text;strokeColor=none;fillColor=none;align=left;verticalAlign=top;spacingLeft=4;spacingRight=4;overflow=hidden;rotatable=0;points=[[0,0.5],[1,0.5]];portConstraint=eastwest;whiteSpace=wrap;html=1;" vertex="1" parent="1CElr1rfIcKDRtoAOfld-23">
          <mxGeometry y="108" width="140" height="100" as="geometry" />
        </mxCell>
        <mxCell id="1CElr1rfIcKDRtoAOfld-44" value="Battle" style="swimlane;fontStyle=0;childLayout=stackLayout;horizontal=1;startSize=26;fillColor=none;horizontalStack=0;resizeParent=1;resizeParentMax=0;resizeLast=0;collapsible=1;marginBottom=0;whiteSpace=wrap;html=1;" vertex="1" parent="WIyWlLk6GJQsqaUBKTNV-1">
          <mxGeometry x="-20" y="50" width="140" height="210" as="geometry" />
        </mxCell>
        <mxCell id="1CElr1rfIcKDRtoAOfld-45" value="+ trainer1: Trainer&lt;div&gt;&lt;span style=&quot;background-color: transparent; color: light-dark(rgb(0, 0, 0), rgb(255, 255, 255));&quot;&gt;+&amp;nbsp;&lt;/span&gt;trainer2&lt;span style=&quot;background-color: transparent; color: light-dark(rgb(0, 0, 0), rgb(255, 255, 255));&quot;&gt;: Trainer&lt;/span&gt;&lt;/div&gt;&lt;div&gt;&lt;span style=&quot;background-color: transparent; color: light-dark(rgb(0, 0, 0), rgb(255, 255, 255));&quot;&gt;+ rnd: Random&lt;/span&gt;&lt;/div&gt;" style="text;strokeColor=none;fillColor=none;align=left;verticalAlign=top;spacingLeft=4;spacingRight=4;overflow=hidden;rotatable=0;points=[[0,0.5],[1,0.5]];portConstraint=eastwest;whiteSpace=wrap;html=1;" vertex="1" parent="1CElr1rfIcKDRtoAOfld-44">
          <mxGeometry y="26" width="140" height="74" as="geometry" />
        </mxCell>
        <mxCell id="1CElr1rfIcKDRtoAOfld-46" value="" style="line;strokeWidth=1;fillColor=none;align=left;verticalAlign=middle;spacingTop=-1;spacingLeft=3;spacingRight=3;rotatable=0;labelPosition=right;points=[];portConstraint=eastwest;strokeColor=inherit;" vertex="1" parent="1CElr1rfIcKDRtoAOfld-44">
          <mxGeometry y="100" width="140" height="8" as="geometry" />
        </mxCell>
        <mxCell id="1CElr1rfIcKDRtoAOfld-47" value="&lt;div&gt;&lt;br&gt;&lt;/div&gt;&lt;div&gt;&lt;span style=&quot;background-color: transparent; color: light-dark(rgb(0, 0, 0), rgb(255, 255, 255));&quot;&gt;+ PokemonBattle():void&lt;/span&gt;&lt;/div&gt;&lt;div&gt;&lt;div&gt;&lt;span style=&quot;background-color: transparent; color: light-dark(rgb(0, 0, 0), rgb(255, 255, 255));&quot;&gt;+ GetRounds(): static&lt;/span&gt;&lt;/div&gt;&lt;div&gt;&lt;span style=&quot;background-color: transparent; color: light-dark(rgb(0, 0, 0), rgb(255, 255, 255));&quot;&gt;+ GetBattles(): static&lt;/span&gt;&lt;/div&gt;&lt;/div&gt;" style="text;strokeColor=none;fillColor=none;align=left;verticalAlign=top;spacingLeft=4;spacingRight=4;overflow=hidden;rotatable=0;points=[[0,0.5],[1,0.5]];portConstraint=eastwest;whiteSpace=wrap;html=1;" vertex="1" parent="1CElr1rfIcKDRtoAOfld-44">
          <mxGeometry y="108" width="140" height="102" as="geometry" />
        </mxCell>
        <mxCell id="1CElr1rfIcKDRtoAOfld-48" value="Arena" style="swimlane;fontStyle=0;childLayout=stackLayout;horizontal=1;startSize=26;fillColor=none;horizontalStack=0;resizeParent=1;resizeParentMax=0;resizeLast=0;collapsible=1;marginBottom=0;whiteSpace=wrap;html=1;" vertex="1" parent="WIyWlLk6GJQsqaUBKTNV-1">
          <mxGeometry x="-20" y="370" width="140" height="190" as="geometry" />
        </mxCell>
        <mxCell id="1CElr1rfIcKDRtoAOfld-49" value="+ rounds: Int&lt;div&gt;&lt;span style=&quot;background-color: transparent; color: light-dark(rgb(0, 0, 0), rgb(255, 255, 255));&quot;&gt;+ battles&lt;/span&gt;&lt;span style=&quot;background-color: transparent; color: light-dark(rgb(0, 0, 0), rgb(255, 255, 255));&quot;&gt;: Int&lt;/span&gt;&lt;/div&gt;" style="text;strokeColor=none;fillColor=none;align=left;verticalAlign=top;spacingLeft=4;spacingRight=4;overflow=hidden;rotatable=0;points=[[0,0.5],[1,0.5]];portConstraint=eastwest;whiteSpace=wrap;html=1;" vertex="1" parent="1CElr1rfIcKDRtoAOfld-48">
          <mxGeometry y="26" width="140" height="54" as="geometry" />
        </mxCell>
        <mxCell id="1CElr1rfIcKDRtoAOfld-50" value="" style="line;strokeWidth=1;fillColor=none;align=left;verticalAlign=middle;spacingTop=-1;spacingLeft=3;spacingRight=3;rotatable=0;labelPosition=right;points=[];portConstraint=eastwest;strokeColor=inherit;" vertex="1" parent="1CElr1rfIcKDRtoAOfld-48">
          <mxGeometry y="80" width="140" height="8" as="geometry" />
        </mxCell>
        <mxCell id="1CElr1rfIcKDRtoAOfld-51" value="&lt;div&gt;&lt;br&gt;&lt;/div&gt;&lt;div&gt;&lt;span style=&quot;background-color: transparent; color: light-dark(rgb(0, 0, 0), rgb(255, 255, 255));&quot;&gt;+ GetRounds(): static&lt;/span&gt;&lt;/div&gt;&lt;div&gt;&lt;span style=&quot;background-color: transparent; color: light-dark(rgb(0, 0, 0), rgb(255, 255, 255));&quot;&gt;+ GetBattles(): static&lt;/span&gt;&lt;/div&gt;" style="text;strokeColor=none;fillColor=none;align=left;verticalAlign=top;spacingLeft=4;spacingRight=4;overflow=hidden;rotatable=0;points=[[0,0.5],[1,0.5]];portConstraint=eastwest;whiteSpace=wrap;html=1;" vertex="1" parent="1CElr1rfIcKDRtoAOfld-48">
          <mxGeometry y="88" width="140" height="102" as="geometry" />
        </mxCell>
        <mxCell id="1CElr1rfIcKDRtoAOfld-52" style="edgeStyle=orthogonalEdgeStyle;rounded=0;orthogonalLoop=1;jettySize=auto;html=1;" edge="1" parent="WIyWlLk6GJQsqaUBKTNV-1" source="1CElr1rfIcKDRtoAOfld-3">
          <mxGeometry relative="1" as="geometry">
            <mxPoint x="120" y="160" as="targetPoint" />
          </mxGeometry>
        </mxCell>
        <mxCell id="1CElr1rfIcKDRtoAOfld-53" style="edgeStyle=orthogonalEdgeStyle;rounded=0;orthogonalLoop=1;jettySize=auto;html=1;exitX=0.5;exitY=0;exitDx=0;exitDy=0;entryX=0.457;entryY=1.01;entryDx=0;entryDy=0;entryPerimeter=0;" edge="1" parent="WIyWlLk6GJQsqaUBKTNV-1">
          <mxGeometry relative="1" as="geometry">
            <mxPoint x="53.01" y="370" as="sourcePoint" />
            <mxPoint x="46.990000000000016" y="261.02" as="targetPoint" />
            <Array as="points">
              <mxPoint x="53.01" y="310" />
              <mxPoint x="47.01" y="310" />
            </Array>
          </mxGeometry>
        </mxCell>
        <mxCell id="1CElr1rfIcKDRtoAOfld-54" style="edgeStyle=orthogonalEdgeStyle;rounded=0;orthogonalLoop=1;jettySize=auto;html=1;entryX=-0.022;entryY=0.07;entryDx=0;entryDy=0;entryPerimeter=0;" edge="1" parent="WIyWlLk6GJQsqaUBKTNV-1" source="1CElr1rfIcKDRtoAOfld-15" target="1CElr1rfIcKDRtoAOfld-13">
          <mxGeometry relative="1" as="geometry" />
        </mxCell>
        <mxCell id="1CElr1rfIcKDRtoAOfld-55" style="edgeStyle=orthogonalEdgeStyle;rounded=0;orthogonalLoop=1;jettySize=auto;html=1;exitX=0.5;exitY=0;exitDx=0;exitDy=0;entryX=0.5;entryY=1;entryDx=0;entryDy=0;entryPerimeter=0;" edge="1" parent="WIyWlLk6GJQsqaUBKTNV-1" source="1CElr1rfIcKDRtoAOfld-19" target="1CElr1rfIcKDRtoAOfld-13">
          <mxGeometry relative="1" as="geometry" />
        </mxCell>
        <mxCell id="1CElr1rfIcKDRtoAOfld-56" style="edgeStyle=orthogonalEdgeStyle;rounded=0;orthogonalLoop=1;jettySize=auto;html=1;entryX=0.994;entryY=-0.03;entryDx=0;entryDy=0;entryPerimeter=0;" edge="1" parent="WIyWlLk6GJQsqaUBKTNV-1" source="1CElr1rfIcKDRtoAOfld-23" target="1CElr1rfIcKDRtoAOfld-13">
          <mxGeometry relative="1" as="geometry" />
        </mxCell>
        <mxCell id="1CElr1rfIcKDRtoAOfld-57" style="edgeStyle=orthogonalEdgeStyle;rounded=0;orthogonalLoop=1;jettySize=auto;html=1;exitX=1;exitY=0.5;exitDx=0;exitDy=0;entryX=0.55;entryY=1.01;entryDx=0;entryDy=0;entryPerimeter=0;" edge="1" parent="WIyWlLk6GJQsqaUBKTNV-1" source="1CElr1rfIcKDRtoAOfld-11" target="1CElr1rfIcKDRtoAOfld-8">
          <mxGeometry relative="1" as="geometry" />
        </mxCell>
        <mxCell id="1CElr1rfIcKDRtoAOfld-58" style="edgeStyle=orthogonalEdgeStyle;rounded=0;orthogonalLoop=1;jettySize=auto;html=1;entryX=1.02;entryY=0.28;entryDx=0;entryDy=0;entryPerimeter=0;" edge="1" parent="WIyWlLk6GJQsqaUBKTNV-1" source="1CElr1rfIcKDRtoAOfld-8" target="1CElr1rfIcKDRtoAOfld-3">
          <mxGeometry relative="1" as="geometry">
            <mxPoint x="360" y="190" as="targetPoint" />
          </mxGeometry>
        </mxCell>
      </root>
    </mxGraphModel>
  </diagram>
</mxfile>
